<?xml version="1.0" encoding="UTF-8" standalone="no"?>
<!DOCTYPE svg PUBLIC "-//W3C//DTD SVG 1.1//EN" "http://www.w3.org/Graphics/SVG/1.1/DTD/svg11.dtd">
<svg width="100%" height="100%" viewBox="0 0 5944 1545" version="1.1" xmlns="http://www.w3.org/2000/svg" xmlns:xlink="http://www.w3.org/1999/xlink" xml:space="preserve" xmlns:serif="http://www.serif.com/" style="fill-rule:evenodd;clip-rule:evenodd;stroke-linejoin:round;stroke-miterlimit:2;">
    <g transform="matrix(2,0,0,2,0,0)">
        <g transform="matrix(6.96662,0,0,6.96662,-4095.21,-8430.54)">
            <text x="787.306px" y="1283.82px" style="font-family:'LucidaGrande-Bold', 'Lucida Grande', sans-serif;font-weight:600;font-size:11.447px;fill:rgb(101,36,132);">O<tspan x="800.835px 812.837px 825.37px 837.63px 845.53px 859.058px 871.961px 882.94px 893.584px 901.462px 913.721px 925.724px 933.624px 944.268px 956.27px 964.17px 976.703px 989.606px 1002.14px " y="1283.82px 1283.82px 1283.82px 1283.82px 1283.82px 1283.82px 1283.82px 1283.82px 1283.82px 1283.82px 1283.82px 1283.82px 1283.82px 1283.82px 1283.82px 1283.82px 1283.82px 1283.82px 1283.82px ">RACIONES CRISTIANAS</tspan></text>
        </g>
        <g transform="matrix(5.70997,0,0,5.70997,-2877.9,-6754.38)">
            <text x="744.62px" y="1255.98px" style="font-family:'AvenirNextCondensed-DemiBold', 'Avenir Next Condensed', sans-serif;font-weight:600;font-stretch:condensed;font-size:47.929px;fill:rgb(101,36,132);">REZA <tspan x="844.359px 868.132px 892.383px 919.655px 943.907px 953.253px " y="1255.98px 1255.98px 1255.98px 1255.98px 1255.98px 1255.98px ">CADA D</tspan>ÍA</text>
        </g>
        <g transform="matrix(4.16667,0,0,4.16667,671.286,92.7362)">
            <path d="M0,-11.433C-16.136,-10.358 -28.939,-5.333 -28.598,-0.208C-28.257,4.916 -14.899,8.199 1.236,7.124C17.372,6.05 30.175,1.024 29.834,-4.1C29.493,-9.225 16.136,-12.508 0,-11.433M45.676,-8.734C46.274,0.247 26.48,8.878 1.464,10.544C-23.552,12.21 -44.316,6.281 -44.914,-2.699C-45.513,-11.679 -25.718,-20.31 -0.702,-21.976C24.314,-23.643 45.078,-17.714 45.676,-8.734" style="fill:rgb(101,36,132);fill-rule:nonzero;"/>
        </g>
        <g transform="matrix(4.16667,0,0,4.16667,934.765,695.867)">
            <path d="M0,-115.333C-5.228,-118.417 -24.383,-126.22 -43.829,-114.879C-40.658,-105.527 -39.217,-99.775 -37.273,-89.317C-23.577,-92.428 -16.729,-93.985 -3.032,-97.096C-2.401,-84.585 -2.538,-78.352 -3.689,-66.058L-34.209,-62.265C-33.186,-37.192 -37.281,-12.214 -45.817,10.887C-29.477,-0.498 0.763,-23.387 14.728,-45.709C26.83,-65.053 30.707,-97.219 0,-115.333" style="fill:rgb(101,36,132);fill-rule:nonzero;"/>
        </g>
        <g transform="matrix(303.682,110.531,110.531,-303.682,1004.78,323.115)">
            <path d="M0.599,0.834C0.529,0.521 0.375,0.394 0.197,0.246C0.169,0.224 0.142,0.201 0.114,0.177C0.105,0.17 0.094,0.16 0.08,0.149C0.058,0.132 0.031,0.109 0,0.083C0.022,0.061 0.042,0.039 0.06,0.015C0.086,0.037 0.112,0.058 0.137,0.079C0.152,0.091 0.164,0.1 0.173,0.108C0.2,0.132 0.228,0.154 0.255,0.177C0.438,0.328 0.611,0.471 0.687,0.814C0.689,0.821 0.691,0.825 0.692,0.826C0.695,0.825 0.7,0.82 0.704,0.809C0.771,0.644 0.71,0.411 0.558,0.253L0.339,0.026L0.613,0.182C0.682,0.222 0.832,0.329 0.871,0.36C0.883,0.37 0.897,0.365 0.904,0.356C0.911,0.348 0.911,0.339 0.906,0.33C0.827,0.195 0.662,0.064 0.564,-0.015L0.295,-0.23L0.587,-0.11C0.621,-0.096 0.665,-0.077 0.709,-0.058C0.761,-0.036 0.814,-0.013 0.855,0.003C0.876,0.011 0.887,-0.005 0.89,-0.01C0.894,-0.016 0.901,-0.032 0.884,-0.047C0.801,-0.121 0.675,-0.201 0.511,-0.286L0.328,-0.379L0.533,-0.371C0.628,-0.367 0.698,-0.362 0.774,-0.356C0.783,-0.355 0.786,-0.36 0.787,-0.363C0.788,-0.366 0.787,-0.368 0.783,-0.37C0.728,-0.405 0.673,-0.433 0.613,-0.454C0.574,-0.469 0.538,-0.479 0.508,-0.486L0.376,-0.521L0.503,-0.572C0.545,-0.589 0.584,-0.608 0.634,-0.634C0.639,-0.636 0.641,-0.64 0.641,-0.642C0.641,-0.644 0.638,-0.648 0.634,-0.65C0.551,-0.703 0.469,-0.745 0.39,-0.773C0.275,-0.815 0.167,-0.83 0.072,-0.819C0.06,-0.847 0.047,-0.875 0.034,-0.903C0.163,-0.924 0.301,-0.902 0.42,-0.858C0.506,-0.827 0.594,-0.783 0.683,-0.726C0.716,-0.705 0.733,-0.673 0.732,-0.638C0.73,-0.603 0.709,-0.57 0.676,-0.553C0.666,-0.548 0.656,-0.543 0.647,-0.538C0.712,-0.515 0.772,-0.485 0.832,-0.447C0.871,-0.422 0.887,-0.377 0.872,-0.334C0.857,-0.29 0.814,-0.262 0.767,-0.266C0.754,-0.267 0.741,-0.268 0.728,-0.269C0.816,-0.216 0.889,-0.164 0.944,-0.115C0.989,-0.076 0.999,-0.015 0.968,0.037C0.938,0.087 0.879,0.108 0.824,0.088L0.822,0.088C0.884,0.148 0.943,0.215 0.984,0.284C1.009,0.327 1.005,0.376 0.973,0.414C0.942,0.451 0.892,0.466 0.848,0.45C0.836,0.445 0.825,0.439 0.815,0.431C0.804,0.423 0.784,0.408 0.76,0.39C0.83,0.541 0.843,0.708 0.788,0.843C0.76,0.912 0.703,0.927 0.662,0.912C0.63,0.901 0.607,0.872 0.599,0.834Z" style="fill:url(#_Linear1);fill-rule:nonzero;"/>
        </g>
        <g transform="matrix(4.16667,0,0,4.16667,690.176,472.143)">
            <path d="M0,-5.527C-12.208,-4.01 -18.312,-3.251 -30.521,-1.734C-33.847,-9.925 -35.809,-13.917 -40.292,-21.6C-26.595,-24.712 -19.746,-26.269 -6.05,-29.381C-9.4,-39.518 -11.475,-44.509 -16.415,-54.207C-12.444,-55.556 -9.131,-56.683 -6.037,-57.734C-27.142,-73.963 -49.329,-64.996 -55.018,-61.639C-85.726,-43.525 -81.849,-11.359 -69.747,7.985C-53.959,33.221 -17.353,59.194 -3.565,68.436C1.938,43.297 3.015,21.431 0,-5.527" style="fill:rgb(190,158,2);fill-rule:nonzero;"/>
        </g>
        <g transform="matrix(334.094,-89.5203,-89.5203,-334.094,74.6205,420.865)">
            <path d="M0.157,0.756C0.117,0.626 0.142,0.472 0.22,0.337C0.196,0.351 0.176,0.363 0.166,0.371C0.155,0.377 0.145,0.382 0.133,0.385C0.091,0.396 0.045,0.379 0.019,0.342C-0.007,0.304 -0.006,0.257 0.02,0.22C0.064,0.159 0.124,0.101 0.186,0.05L0.185,0.051C0.132,0.065 0.079,0.04 0.055,-0.009C0.031,-0.059 0.045,-0.115 0.089,-0.148C0.145,-0.19 0.217,-0.232 0.303,-0.274C0.291,-0.274 0.279,-0.274 0.267,-0.274C0.223,-0.274 0.185,-0.304 0.174,-0.346C0.164,-0.387 0.183,-0.428 0.221,-0.448C0.28,-0.478 0.339,-0.501 0.401,-0.518C0.392,-0.523 0.384,-0.529 0.375,-0.534C0.346,-0.553 0.328,-0.585 0.33,-0.618C0.331,-0.651 0.35,-0.679 0.382,-0.696C0.47,-0.741 0.556,-0.776 0.638,-0.798L0.638,-0.798C0.752,-0.828 0.882,-0.838 1,-0.808C0.985,-0.783 0.971,-0.758 0.957,-0.732C0.87,-0.75 0.769,-0.745 0.659,-0.716C0.584,-0.696 0.503,-0.664 0.421,-0.621C0.418,-0.619 0.414,-0.616 0.414,-0.614C0.414,-0.612 0.416,-0.608 0.42,-0.606C0.465,-0.577 0.5,-0.557 0.538,-0.538L0.651,-0.48L0.525,-0.458C0.497,-0.454 0.463,-0.447 0.425,-0.437C0.368,-0.422 0.314,-0.401 0.26,-0.373C0.256,-0.371 0.256,-0.369 0.256,-0.366C0.257,-0.363 0.259,-0.359 0.267,-0.359C0.338,-0.358 0.404,-0.357 0.493,-0.353L0.684,-0.344L0.507,-0.272C0.347,-0.207 0.223,-0.142 0.14,-0.08C0.123,-0.068 0.128,-0.052 0.131,-0.046C0.133,-0.041 0.143,-0.025 0.165,-0.031L0.165,-0.031C0.202,-0.043 0.254,-0.06 0.303,-0.076C0.346,-0.09 0.388,-0.104 0.422,-0.115L0.703,-0.202L0.436,-0.024C0.338,0.041 0.174,0.15 0.089,0.269C0.083,0.277 0.083,0.285 0.089,0.294C0.095,0.302 0.107,0.308 0.119,0.3C0.158,0.274 0.306,0.186 0.374,0.155L0.641,0.033L0.419,0.226C0.265,0.36 0.188,0.573 0.238,0.731C0.241,0.742 0.245,0.747 0.247,0.748C0.249,0.747 0.251,0.744 0.253,0.738C0.352,0.425 0.525,0.306 0.708,0.179C0.735,0.161 0.762,0.142 0.79,0.122C0.798,0.116 0.811,0.108 0.825,0.098C0.85,0.081 0.875,0.064 0.9,0.045C0.915,0.069 0.932,0.092 0.951,0.114C0.921,0.135 0.894,0.154 0.873,0.168C0.859,0.177 0.847,0.185 0.839,0.191C0.811,0.211 0.783,0.23 0.756,0.249C0.578,0.372 0.424,0.478 0.334,0.763C0.323,0.798 0.299,0.823 0.268,0.831C0.229,0.841 0.178,0.822 0.157,0.756Z" style="fill:url(#_Linear2);fill-rule:nonzero;"/>
        </g>
        <g transform="matrix(2.84779,-3.04158,-3.04158,-2.84779,683.436,305.898)">
            <path d="M-10.707,-3.953C-5.954,4.765 -3.695,9.641 -0.424,18.512C-3.489,19.91 -6.757,21.401 -10.707,23.204C-13.387,14.046 -15.188,9.029 -18.634,1.41C-16.239,-0.21 -13.662,-1.953 -10.707,-3.953" style="fill:rgb(147,118,0);fill-rule:nonzero;"/>
        </g>
        <g transform="matrix(4.16667,0,0,4.16667,671.265,404.586)">
            <path d="M0,83.995C0.342,84.226 0.655,84.436 0.973,84.649C6.477,59.51 7.553,37.645 4.539,10.687C-7.669,12.203 -13.773,12.963 -25.982,14.48C-28.556,8.141 -30.317,4.312 -33.058,-0.654C-36.084,0.236 -39.334,1.192 -43.127,2.307C-38.172,9.695 -35.964,13.557 -32.133,21.524C-20.043,19.247 -13.998,18.107 -1.909,15.829C2.421,40.47 3.009,61.001 0,83.995" style="fill:rgb(147,118,0);fill-rule:nonzero;"/>
        </g>
        <g transform="matrix(4.16667,0,0,4.16667,779.462,665.411)">
            <path d="M0,-82.008C-1.946,-92.476 -3.388,-98.229 -6.566,-107.598C-10.944,-105.045 -15.336,-101.529 -19.587,-96.76C-22.172,-99.66 -24.811,-102.077 -27.465,-104.118C-30.559,-103.067 -33.872,-101.941 -37.843,-100.591C-32.904,-90.894 -30.829,-85.902 -27.479,-75.765C-41.175,-72.653 -48.023,-71.097 -61.72,-67.985C-57.237,-60.301 -55.276,-56.31 -51.95,-48.118C-39.741,-49.635 -33.636,-50.394 -21.429,-51.911C-18.414,-24.953 -19.491,-3.088 -24.994,22.051C-21.617,24.315 -19.587,25.59 -19.587,25.59C-19.587,25.59 -15.213,22.843 -8.544,18.196C-0.008,-4.905 4.086,-29.883 3.064,-54.955L33.584,-58.749C34.735,-71.043 34.871,-77.276 34.241,-89.786C20.544,-86.675 13.696,-85.119 0,-82.008" style="fill:white;fill-rule:nonzero;"/>
        </g>
    </g>
    <defs>
        <linearGradient id="_Linear1" x1="0" y1="0" x2="1" y2="0" gradientUnits="userSpaceOnUse" gradientTransform="matrix(1,-5.55112e-17,-5.55112e-17,-1,0,0.00317617)"><stop offset="0" style="stop-color:rgb(74,11,98);stop-opacity:1"/><stop offset="0.35" style="stop-color:rgb(101,36,132);stop-opacity:1"/><stop offset="1" style="stop-color:rgb(101,36,132);stop-opacity:1"/></linearGradient>
        <linearGradient id="_Linear2" x1="0" y1="0" x2="1" y2="0" gradientUnits="userSpaceOnUse" gradientTransform="matrix(1,0,0,-1,0,0.00377095)"><stop offset="0" style="stop-color:rgb(190,158,2);stop-opacity:1"/><stop offset="0.65" style="stop-color:rgb(190,158,2);stop-opacity:1"/><stop offset="1" style="stop-color:rgb(128,103,0);stop-opacity:1"/></linearGradient>
    </defs>
</svg>
